<?xml version="1.0" standalone="no"?><!DOCTYPE svg PUBLIC "-//W3C//DTD SVG 1.1//EN" "http://www.w3.org/Graphics/SVG/1.1/DTD/svg11.dtd"><svg t="1636889765131" class="icon" viewBox="0 0 1024 1024" version="1.1" xmlns="http://www.w3.org/2000/svg" p-id="4939" xmlns:xlink="http://www.w3.org/1999/xlink" width="64" height="64"><defs><style type="text/css"></style></defs><path d="M253.19513 561.93113l205.979827 53.003131-110.903653 408.197565-73.950608-127.220869L142.246957 970.128696l110.925913-408.197566z m517.60974 0L881.753043 970.128696l-126.775652-74.217739-73.928348 127.220869-116.201739-402.899478 205.979826-58.323478z" fill="#EB4947" p-id="4940"></path><path d="M512 0l338.031304 169.627826 84.502261 376.386783-232.403478 302.169043H321.869913L89.444174 546.014609 173.990957 169.627826z" fill="#FFDB4C" p-id="4941"></path><path d="M221.495652 450.604522c0 161.03513 130.070261 291.57287 290.504348 291.572869 160.434087 0 290.504348-130.537739 290.504348-291.572869 0-161.03513-130.070261-291.57287-290.504348-291.57287-160.434087 0-290.504348 130.537739-290.504348 291.57287z" fill="#F3AF35" p-id="4942"></path><path d="M416.946087 328.681739v-68.919652l79.204174-10.596174h73.950609v408.175304h-100.352V328.681739z" fill="#FFF4C7" p-id="4943"></path></svg>