<?xml version="1.0" standalone="no"?><!DOCTYPE svg PUBLIC "-//W3C//DTD SVG 1.1//EN" "http://www.w3.org/Graphics/SVG/1.1/DTD/svg11.dtd"><svg t="1636889678371" class="icon" viewBox="0 0 1024 1024" version="1.1" xmlns="http://www.w3.org/2000/svg" p-id="4647" xmlns:xlink="http://www.w3.org/1999/xlink" width="64" height="64"><defs><style type="text/css"></style></defs><path d="M253.19513 561.93113l205.979827 53.003131-110.903653 408.197565-73.950608-127.220869L142.246957 970.128696l110.925913-408.197566z m517.60974 0L881.753043 970.128696l-126.775652-74.217739-73.928348 127.220869-116.201739-402.899478 205.979826-58.323478z" fill="#9091C4" p-id="4648"></path><path d="M512 0l338.031304 169.627826 84.502261 376.386783-232.403478 302.169043H321.869913L89.444174 546.014609 173.990957 169.627826z" fill="#C99B89" p-id="4649"></path><path d="M221.495652 450.604522c0 161.03513 130.070261 291.57287 290.504348 291.572869 160.434087 0 290.504348-130.537739 290.504348-291.572869 0-161.03513-130.070261-291.57287-290.504348-291.57287-160.434087 0-290.504348 130.537739-290.504348 291.57287z" fill="#A27F72" p-id="4650"></path><path d="M395.798261 625.530435v-127.22087h100.352v68.919652h36.975304v-79.515826h-36.953043v-74.217739h36.953043V339.255652h-36.953043v58.323478l-100.374261-5.320347v-116.624696l26.401391-26.490435h190.152348l21.147826 26.490435v159.031652l-21.147826 15.916522 21.147826 15.894261V625.530435l-21.147826 31.833043h-190.152348z" fill="#F8D8C7" p-id="4651"></path></svg>