<?xml version="1.0" standalone="no"?><!DOCTYPE svg PUBLIC "-//W3C//DTD SVG 1.1//EN" "http://www.w3.org/Graphics/SVG/1.1/DTD/svg11.dtd"><svg t="1636896173361" class="icon" viewBox="0 0 1024 1024" version="1.1" xmlns="http://www.w3.org/2000/svg" p-id="2441" xmlns:xlink="http://www.w3.org/1999/xlink" width="64" height="64"><defs><style type="text/css"></style></defs><path d="M692.325262 203.800976c-48.35278-48.35278-112.490146-74.926829-180.823414-74.92683s-132.570537 26.574049-180.823415 74.92683c-48.35278 48.35278-74.926829 112.490146-74.926829 180.823414s26.574049 132.570537 74.926829 180.823415c48.35278 48.35278 112.490146 74.926829 180.823415 74.926829s132.570537-26.574049 180.823414-74.926829c48.35278-48.35278 74.926829-112.490146 74.92683-180.823415s-26.574049-132.570537-74.92683-180.823414zM511.501848 580.433171c-107.994537 0-195.80878-87.814244-195.808781-195.808781s87.814244-195.80878 195.808781-195.80878 195.80878 87.814244 195.80878 195.80878-87.814244 195.80878-195.80878 195.808781z" fill="#d81e06" p-id="2442"></path><path d="M1016.708482 813.505561l-10.889366-13.986341-167.736195-214.59044c10.190049-16.583805 19.181268-33.866927 26.873756-51.949268 19.980488-47.353756 30.170537-97.604683 30.170537-149.354146s-10.190049-102.00039-30.170537-149.354146c-19.281171-45.655415-46.954146-86.715317-82.219707-121.880976-35.265561-35.265561-76.225561-62.838634-121.880976-82.219707C613.502238 10.190049 563.251311 0 511.501848 0S409.501458 10.190049 362.147701 30.170537c-45.655415 19.281171-86.715317 46.954146-121.880975 82.219707-35.265561 35.265561-62.838634 76.225561-82.219707 121.880976-19.980488 47.353756-30.170537 97.604683-30.170537 149.354146s10.190049 102.00039 30.170537 149.354146c7.692488 18.082341 16.583805 35.465366 26.873756 51.949268L17.284482 799.51922l-10.889366 13.986341c-10.190049 12.987317-7.79239 31.96878 5.194927 42.058927l0.099902 0.099902c3.69639 2.897171 8.092098 4.795317 12.787513 5.394732l5.994146 0.799219 128.274732 17.982439 48.552585 120.082732 2.197854 5.494634c1.798244 4.395707 4.695415 8.291902 8.491707 11.288976 12.987317 10.190049 31.96878 7.79239 42.058927-5.194927l10.889366-13.986341 183.221073-234.570927c18.881561 2.797268 38.062829 4.295805 57.543805 4.295805 19.381073 0 38.562341-1.398634 57.543805-4.295805L752.266726 997.525854l10.889366 13.986341c10.190049 12.987317 29.07161 15.285073 42.058927 5.194927 3.796293-2.897171 6.693463-6.793366 8.491707-11.288976l2.197854-5.494634 48.552585-120.082732 128.274732-17.982439 5.994146-0.799219c4.695415-0.699317 9.091122-2.497561 12.787512-5.394732l0.099903-0.099902c12.887415-10.190049 15.185171-29.07161 5.095024-42.058927zM247.959214 929.292488c-1.398634 1.798244-4.295805 1.398634-5.095025-0.699317l-35.165658-87.015025c-1.998049-4.89522-5.194927-8.99122-9.091122-12.088195-0.099902-0.099902-0.299707-0.199805-0.39961-0.299707-0.099902-0.099902-0.299707-0.199805-0.39961-0.299707-3.996098-2.997073-8.691512-5.095024-13.986341-5.894244l-92.909268-13.08722c-2.297756-0.299707-3.396683-2.997073-1.898147-4.795317L221.784775 635.079805c5.894244 6.793366 12.088195 13.386927 18.481951 19.780683 35.265561 35.265561 76.225561 62.838634 121.880975 82.219707 9.191024 3.896195 18.382049 7.39278 27.772879 10.489756L247.959214 929.292488zM511.501848 707.309268c-86.41561 0-167.736195-33.667122-228.876488-94.807414-8.791415-8.791415-16.983415-17.982439-24.576-27.473171-9.590634-12.088195-18.382049-24.775805-26.074537-37.962927C203.202921 498.013659 187.817945 441.96839 187.817945 383.625366c0-86.41561 33.667122-167.736195 94.807415-228.876488C343.765653 93.608585 425.086238 59.941463 511.501848 59.941463s167.736195 33.667122 228.876488 94.807415C801.518628 215.889171 835.18575 297.209756 835.18575 383.625366c0 58.343024-15.384976 114.388293-44.156878 163.44039-7.692488 13.187122-16.483902 25.874732-26.074536 37.962927-7.592585 9.590634-15.784585 18.781659-24.576 27.473171C679.238043 673.642146 597.917458 707.309268 511.501848 707.309268z m420.589268 102.499903l-92.909268 13.087219c-5.294829 0.699317-9.990244 2.797268-13.986342 5.894244-0.099902 0.099902-0.299707 0.199805-0.399609 0.299707-0.099902 0.099902-0.299707 0.199805-0.39961 0.299708-3.896195 3.096976-7.093073 7.192976-9.091122 12.088195l-35.165659 87.015024c-0.899122 2.097951-3.69639 2.497561-5.095024 0.699317L633.083116 747.569951c9.390829-3.096976 18.581854-6.593561 27.772878-10.489756 45.655415-19.281171 86.715317-46.954146 121.880976-82.219707 6.393756-6.393756 12.587707-12.987317 18.481951-19.780683l132.770341 169.934049c1.498537 1.798244 0.39961 4.49561-1.898146 4.795317z" fill="#d81e06" p-id="2443"></path></svg>